<?xml version="1.0" encoding="UTF-8" standalone="no"?>
<!-- Created with Inkscape (http://www.inkscape.org/) -->

<svg
   version="1.1"
   id="svg1"
   width="32"
   height="32"
   viewBox="0 0 55.410968 55.410968"
   sodipodi:docname="favicon.svg"
   inkscape:version="1.3.2 (091e20ef0f, 2023-11-25, custom)"
   xmlns:inkscape="http://www.inkscape.org/namespaces/inkscape"
   xmlns:sodipodi="http://sodipodi.sourceforge.net/DTD/sodipodi-0.dtd"
   xmlns:xlink="http://www.w3.org/1999/xlink"
   xmlns="http://www.w3.org/2000/svg"
   xmlns:svg="http://www.w3.org/2000/svg">
  <defs
     id="defs1">
    <linearGradient
       id="swatch89"
       inkscape:swatch="solid">
      <stop
         style="stop-color:#000000;stop-opacity:1;"
         offset="0"
         id="stop89" />
    </linearGradient>
    <linearGradient
       id="swatch79"
       inkscape:swatch="solid"
       inkscape:label="Stroke">
      <stop
         style="stop-color:#000000;stop-opacity:1;"
         offset="0"
         id="stop79" />
    </linearGradient>
    <linearGradient
       id="swatch66"
       inkscape:swatch="solid"
       inkscape:label="Fill">
      <stop
         style="stop-color:#d33682;stop-opacity:1;"
         offset="0"
         id="stop66" />
    </linearGradient>
    <linearGradient
       inkscape:collect="always"
       xlink:href="#swatch66"
       id="linearGradient66"
       x1="-20.779131"
       y1="-1.5000413e-05"
       x2="20.779131"
       y2="-1.5000413e-05"
       gradientUnits="userSpaceOnUse"
       gradientTransform="matrix(1.3333333,0,0,-1.3333333,219.70533,217.21467)" />
  </defs>
  <sodipodi:namedview
     id="namedview1"
     pagecolor="#505050"
     bordercolor="#eeeeee"
     borderopacity="1"
     inkscape:showpageshadow="0"
     inkscape:pageopacity="0"
     inkscape:pagecheckerboard="true"
     inkscape:deskcolor="#d1d1d1"
     inkscape:zoom="22.627417"
     inkscape:cx="14.208427"
     inkscape:cy="13.876971"
     inkscape:window-width="1920"
     inkscape:window-height="1014"
     inkscape:window-x="0"
     inkscape:window-y="0"
     inkscape:window-maximized="1"
     inkscape:current-layer="g1">
    <inkscape:page
       x="0"
       y="0"
       inkscape:label="1"
       id="page1"
       width="55.410969"
       height="55.410969"
       margin="0"
       bleed="0"
       inkscape:export-filename="favicon.png"
       inkscape:export-xdpi="1536"
       inkscape:export-ydpi="1536" />
  </sodipodi:namedview>
  <g
     inkscape:groupmode="layer"
     id="layer1"
     inkscape:label="bg"
     transform="translate(3.5095214e-7,2.4926047)">
    <rect
       style="display:none;fill:#ffffff;fill-opacity:1;stroke:none;paint-order:stroke markers fill"
       id="rect89"
       width="55.410999"
       height="55.410999"
       x="-3.5095215e-07"
       y="-2.4926047"
       inkscape:label="rect89" />
  </g>
  <g
     id="g1"
     inkscape:groupmode="layer"
     inkscape:label="1"
     transform="translate(-191.99983,-189.51004)">
    <path
       id="path78"
       style="color:#000000;fill:url(#linearGradient66);stroke-width:1.33333;stroke-miterlimit:10;-inkscape-stroke:none"
       inkscape:label="Fill"
       d="m 219.68147,192.53584 c -0.53767,0.0129 -1.0808,0.47019 -1.50195,1.3125 -0.42725,0.85448 -0.70313,2.06835 -0.70313,3.41016 0,1.34181 0.27588,2.55371 0.70313,3.4082 0.42724,0.85448 0.98013,1.31446 1.52539,1.31446 0.54526,0 1.1001,-0.45998 1.52734,-1.31446 0.42725,-0.85449 0.70117,-2.06639 0.70117,-3.4082 0,-1.34181 -0.27392,-2.55568 -0.70117,-3.41016 -0.42115,-0.84231 -0.96618,-1.29958 -1.5039,-1.3125 -0.008,0 -0.0153,0 -0.0234,0 -0.008,0 -0.0153,0 -0.0234,0 z m 1.27539,0.0273 c 0.28719,0.27325 0.54089,0.63061 0.75,1.04883 0.47559,0.95116 0.75781,2.23288 0.75781,3.64648 0,1.4136 -0.28222,2.6953 -0.75781,3.64648 -0.2229,0.4458 -0.49565,0.8251 -0.80664,1.10352 6.13557,0.27624 8.84902,2.6823 11.45703,5.0293 2.59658,2.3367 5.09243,4.61576 11.04102,4.89453 -0.28757,-0.27274 -0.54067,-0.63017 -0.75,-1.04883 -0.4756,-0.95118 -0.75781,-2.23291 -0.75781,-3.64648 0,-1.4136 0.28221,-2.69726 0.75781,-3.64844 0.22289,-0.4458 0.49565,-0.8251 0.80664,-1.10352 -6.13558,-0.27646 -8.84707,-2.68426 -11.45508,-5.03125 -2.59687,-2.33696 -5.09293,-4.61276 -11.04297,-4.89062 z m -2.50586,0.002 c -5.94703,0.2794 -8.4428,2.55603 -11.03906,4.89258 -2.60801,2.34712 -5.32147,4.75285 -11.45703,5.0293 0.31153,0.27823 0.5835,0.65725 0.80664,1.10351 0.47559,0.95118 0.75781,2.23289 0.75781,3.64649 0,1.41358 -0.28222,2.6953 -0.75781,3.64648 -0.22336,0.44673 -0.49679,0.82487 -0.80859,1.10352 6.13689,0.27603 8.8507,2.68201 11.45898,5.02929 2.59658,2.33677 5.09243,4.61577 11.04102,4.89453 -0.28757,-0.27274 -0.54067,-0.63017 -0.75,-1.04882 -0.47559,-0.95118 -0.75782,-2.23289 -0.75782,-3.64649 0,-1.41357 0.28223,-2.6953 0.75782,-3.64648 0.23652,-0.47307 0.52811,-0.86873 0.86328,-1.15039 -3.51899,-0.42308 -5.36328,-2.78887 -5.36328,-5.1836 0,-2.39423 1.84374,-4.75574 5.36132,-5.17969 -0.33464,-0.2816 -0.62509,-0.67791 -0.86132,-1.15039 -0.47559,-0.95118 -0.75782,-2.23288 -0.75782,-3.64648 0,-1.4136 0.28223,-2.69532 0.75782,-3.64648 0.20863,-0.41728 0.46166,-0.77385 0.74804,-1.04688 z m 26.19922,9.94727 c -0.54525,0 -1.09814,0.45996 -1.52539,1.31445 -0.42725,0.85449 -0.70312,2.06835 -0.70312,3.41016 0,1.34178 0.27587,2.55371 0.70312,3.4082 0.42725,0.85449 0.98014,1.31445 1.52539,1.31445 0.54527,0 1.1001,-0.45996 1.52734,-1.31445 0.42725,-0.85449 0.70313,-2.06836 0.70313,-3.41016 0,-1.34181 -0.27588,-2.55371 -0.70313,-3.4082 -0.42724,-0.85449 -0.98207,-1.31445 -1.52734,-1.31445 z m -49.89062,0.002 c -0.54527,0 -1.09816,0.45801 -1.52539,1.3125 -0.42725,0.85449 -0.70313,2.06639 -0.70313,3.4082 0,1.34182 0.27588,2.55567 0.70313,3.41016 0.42723,0.85449 0.98012,1.31445 1.52539,1.31445 0.54525,0 1.10009,-0.45801 1.52734,-1.3125 0.42725,-0.85449 0.70117,-2.06836 0.70117,-3.41015 0,-1.34181 -0.27392,-2.55372 -0.70117,-3.40821 -0.42725,-0.85448 -0.98209,-1.31445 -1.52734,-1.31445 z m 24.94531,9.97851 c -0.54526,0 -1.09815,0.45998 -1.52539,1.31446 -0.42725,0.85448 -0.70313,2.06641 -0.70313,3.4082 0,1.34181 0.27588,2.55371 0.70313,3.4082 0.42724,0.85449 0.98013,1.31446 1.52539,1.31446 0.54526,0 1.1001,-0.45997 1.52734,-1.31446 0.42725,-0.85449 0.70117,-2.06639 0.70117,-3.4082 0,-1.34179 -0.27392,-2.55372 -0.70117,-3.4082 -0.42724,-0.85448 -0.98208,-1.31446 -1.52734,-1.31446 z m 1.24805,0.0254 c 0.28905,0.27301 0.54377,0.6305 0.7539,1.05078 0.47559,0.95118 0.75781,2.23291 0.75781,3.64648 0,1.4136 -0.28222,2.69531 -0.75781,3.64649 -0.23653,0.47305 -0.52811,0.86872 -0.86328,1.15039 3.5189,0.42311 5.36523,2.78693 5.36523,5.18164 0,2.39423 -1.84571,4.75574 -5.36328,5.17968 0.33465,0.2816 0.6251,0.67792 0.86133,1.15039 0.47559,0.95118 0.75781,2.23484 0.75781,3.64844 0,1.4136 -0.28222,2.69531 -0.75781,3.64649 -0.20885,0.4177 -0.46129,0.77436 -0.74805,1.04687 5.94859,-0.27895 8.44444,-2.55574 11.04102,-4.89258 2.60774,-2.34687 5.31888,-4.7544 11.45313,-5.03125 -0.3104,-0.27858 -0.58207,-0.65631 -0.80469,-1.10156 -0.4756,-0.95118 -0.75781,-2.2329 -0.75781,-3.64648 0,-1.4136 0.28221,-2.6953 0.75781,-3.64649 0.22337,-0.44674 0.49676,-0.82626 0.80859,-1.10547 -6.13691,-0.27604 -8.84875,-2.68201 -11.45703,-5.02929 -2.59746,-2.33757 -5.09393,-4.61704 -11.04687,-4.89453 z m -26.19336,9.95117 c -0.54527,0 -1.09816,0.46191 -1.52539,1.3164 -0.42725,0.85449 -0.70313,2.06641 -0.70313,3.40821 0,1.3418 0.27588,2.55371 0.70313,3.4082 0.42723,0.85449 0.98012,1.31641 1.52539,1.31641 0.54525,0 1.10009,-0.45997 1.52734,-1.31446 0.42725,-0.85449 0.70117,-2.06836 0.70117,-3.41015 0,-1.34179 -0.27392,-2.55372 -0.70117,-3.40821 -0.42725,-0.85449 -0.98209,-1.31445 -1.52734,-1.31445 z m 49.89062,0 c -0.54525,0 -1.09814,0.45996 -1.52539,1.31445 -0.42725,0.85449 -0.70312,2.06834 -0.70312,3.41016 0,1.34179 0.27587,2.55372 0.70312,3.4082 0.42317,0.84633 0.96959,1.30381 1.50977,1.3125 0.005,0 0.0102,0 0.0156,0 0.54527,0 1.1001,-0.45801 1.52734,-1.3125 0.42725,-0.85449 0.70313,-2.0664 0.70313,-3.4082 0,-1.34182 -0.27588,-2.55372 -0.70313,-3.40821 -0.42724,-0.85449 -0.98207,-1.3164 -1.52734,-1.3164 z m -48.64062,0.0273 c 0.28846,0.27315 0.54204,0.63097 0.75195,1.05078 0.47559,0.95119 0.75781,2.23291 0.75781,3.64649 0,1.41358 -0.28222,2.6953 -0.75781,3.64648 -0.22384,0.44769 -0.4979,0.82667 -0.81055,1.10547 6.13823,0.27564 8.8524,2.68183 11.46094,5.0293 2.59626,2.33641 5.09203,4.60994 11.03906,4.88867 -0.28634,-0.2724 -0.53943,-0.62771 -0.74804,-1.04492 -0.47559,-0.95118 -0.75782,-2.23289 -0.75782,-3.64649 0,-1.4136 0.28223,-2.69726 0.75782,-3.64844 0.22241,-0.44484 0.49452,-0.82331 0.80468,-1.10156 -6.13424,-0.27665 -8.84538,-2.6845 -11.45312,-5.03125 -2.59717,-2.33722 -5.09344,-4.6166 -11.04492,-4.89453 z m 23.67968,9.95313 c -0.54018,0.009 -1.0866,0.46616 -1.50976,1.3125 -0.42725,0.85447 -0.70313,2.06833 -0.70313,3.41015 0,1.34181 0.27588,2.55373 0.70313,3.40821 0.42724,0.85446 0.98013,1.31445 1.52539,1.31445 0.54526,0 1.1001,-0.45999 1.52734,-1.31445 0.42725,-0.85448 0.70117,-2.0664 0.70117,-3.40821 0,-1.34182 -0.27392,-2.55568 -0.70117,-3.41015 -0.42366,-0.84734 -0.97282,-1.30488 -1.51367,-1.3125 -0.005,0 -0.009,0 -0.0137,0 -0.005,0 -0.0102,0 -0.0156,0 z" />
  </g>
</svg>
